<svg width="150" height="150" viewBox="0 0 150 150" fill="none" xmlns="http://www.w3.org/2000/svg">
<rect width="150" height="150" rx="48" fill="#545454"/>
<path d="M45 79.3C44.9333 78.8333 44.9 78.0667 44.9 77C44.9 74.4 45.1667 71.8667 45.7 69.4C46.2333 66.9333 47 64.2333 48 61.3C49 58.5667 50.9 55.8333 53.7 53.1C56.5 50.3667 59.6333 48.1333 63.1 46.4C66.5667 44.6 69.7 43.7 72.5 43.7C75.3667 43.7 78.1667 44.7667 80.9 46.9C83.6333 48.9667 85.3667 51.3333 86.1 54C86.2333 54.8 86.3 55.3333 86.3 55.6C86.3 56.6 86 57.3667 85.4 57.9C84.8667 58.3667 84.1333 58.6 83.2 58.6C82.4667 58.6 81.9 58.5667 81.5 58.5C81.3 58.5 81 58.3667 80.6 58.1C78.6667 57.0333 76.8 56.5 75 56.5C71.6 56.5 68.2333 58.2667 64.9 61.8C59.2333 67.7333 56.4 74.8 56.4 83C56.4 85.9333 56.7 88.7667 57.3 91.5C57.9667 94.5667 59.1333 96.8333 60.8 98.3C62.5333 99.7 64.8333 100.4 67.7 100.4C68.7 100.4 69.8 100.3 71 100.1C75.2 99.5667 79.0667 98.3 82.6 96.3C86.1333 94.2333 90.0333 91.5 94.3 88.1C95.3 87.3 97.0667 85.6333 99.6 83.1L101.6 81C102.467 80.1333 103.2 79.5333 103.8 79.2C104.467 78.8 105.067 78.6 105.6 78.6C106.467 78.6 107.533 79.0333 108.8 79.9C110.2 80.9 110.9 82.1667 110.9 83.7C110.9 84.7667 110.533 85.7667 109.8 86.7C109.533 87.1667 108.8 88.2667 107.6 90C106.4 91.6667 105.233 93.1667 104.1 94.5C102.967 95.8333 101.833 96.9667 100.7 97.9C94.5667 103.3 88.1667 106.933 81.5 108.8C78.5667 109.6 75.6333 110 72.7 110C67.3 110 62.5 108.633 58.3 105.9C54.1667 103.167 50.9333 99.6 48.6 95.2C46.2667 90.7333 45.0667 86.1 45 81.3V79.3Z" fill="white"/>
</svg>
